<svg id="Layer_1" data-name="Layer 1" xmlns="http://www.w3.org/2000/svg" viewBox="0 0 2552.58 728.43"><defs><style>.cls-1{fill:#4f2b84;}</style></defs><path class="cls-1" d="M96.86,692.6v-655h271.3V68.82h-240V661.34h240V692.6Zm52.53-337.72V89.66H368.16v32.12H180.64v201H368.16v32.12Zm0,285.2V375.28H368.16v32.13H180.64V608.82H368.16v31.26Z"/><path class="cls-1" d="M427.2,505.94V224.22q0-87.24,37.33-134.56a152.59,152.59,0,0,1,17.36-18,121.38,121.38,0,0,1,25-16.93,154.61,154.61,0,0,1,33.21-12.38q18.66-4.77,42.54-4.77,48.18,0,75.75,17.15t41.89,34.94q38.19,48.18,38.19,134.56V265.9H706.31V224.13q0-76.56-30.38-116.15Q643.8,68.83,582.6,68.82t-93.33,39.1q-31.25,40.83-30.82,116V505.83q0,48.23,11.51,78.84t29.3,47.57a93.16,93.16,0,0,0,39.93,23,164.36,164.36,0,0,0,43.63,6.07A159.71,159.71,0,0,0,626,655.27q21.69-6.07,39.5-23t29.3-47.53q11.49-30.6,11.5-78.79V463.4h32.12v42.54q0,86.38-38.19,134.14-14.32,17.79-41.89,35.16T582.6,692.6q-23.88,0-42.54-5a171,171,0,0,1-33.21-12.37,115.2,115.2,0,0,1-25-16.72,135.35,135.35,0,0,1-17.36-18.44Q427.2,594.06,427.2,505.94Zm52.52,0V224.22q0-134.13,103.1-134.34T685.91,224.22V265.9H653.79V224.22q0-38.19-7.6-59.25t-18.66-30.38q-11.07-9.33-23.44-11.07a157.15,157.15,0,0,0-21.49-1.74,148.35,148.35,0,0,0-21.7,1.74q-11.73,1.74-23.44,11.07T518.36,165Q511,186,511,224.22V505.94q0,57.73,20.4,82.48,4.33,6.95,15.84,13.67t35.6,6.73q24.09,0,35.16-6.51t16.28-13.89q19.53-24.75,19.53-82.48V463.4h32.12v42.54q0,134.13-103.09,134.14T479.72,505.94Z"/><path class="cls-1" d="M790.52,692.6v-655h271.31V68.82h-240V661.34h240V692.6Zm52.53-337.72V89.66h218.78v32.12H874.3v201h187.53v32.12Zm0,285.2V375.28h218.78v32.13H874.3V608.82h187.53v31.26Z"/><path class="cls-1" d="M1120.86,67.09V35.83h135.67q84.53,0,127,48.62,39.88,45.15,39.89,135T1383.56,356q-42.46,49.29-126.93,48.84h-52V690.86h-31.26V373.55h83.35q69.45,0,102.44-37.33t33-116.77q0-77.91-33-115.13T1256.73,67.09H1120.86Zm0,623.77V87.92h31.25V690.86Zm52.52-338.58V87.92h83.35q60.33,0,87.25,30.39,27.35,31.24,27.56,101.36T1344.63,321q-27.14,31.26-87.9,31.26ZM1204.64,321h52.09q34.73,0,47.31-8t16.07-12.37q19.53-22.14,19.53-81.17,0-32.12-5.43-51.44t-15.62-30.17a51.91,51.91,0,0,0-25.83-14.76q-15.63-3.9-36-3.9h-52.09Z"/><path class="cls-1" d="M1774,41.91h56.35V53.3H1788V85.65h40.56v11.4H1788v34.63h42.84v11.39H1774Z"/><path class="cls-1" d="M1880,106.16l27,36.91H1892.5l-19.75-27.19-19.59,27.19h-14.59l27-36.91-26.43-36h14.58l19,26.28,19.14-26.28h14.58Z"/><path class="cls-1" d="M1917.71,70.16h13.06V80a31.48,31.48,0,0,1,9-8q5.46-3.33,14.12-3.34a25.44,25.44,0,0,1,11.85,2.74,26.62,26.62,0,0,1,9.11,7.74A38.29,38.29,0,0,1,1980.75,91a50.39,50.39,0,0,1,2.12,15,44.6,44.6,0,0,1-2.81,16.33,34.17,34.17,0,0,1-7.82,12.15,33.66,33.66,0,0,1-11.77,7.52,40.78,40.78,0,0,1-14.66,2.58,50.51,50.51,0,0,1-7.82-.54,55.3,55.3,0,0,1-6.61-1.46v31.77h-13.67Zm32.66,9.57A20.2,20.2,0,0,0,1939,82.84a32,32,0,0,0-7.6,6.74v42a24.34,24.34,0,0,0,5.93,1.52,52.16,52.16,0,0,0,7,.45q11.4,0,18.16-7.12t6.75-20.44a46.27,46.27,0,0,0-1.13-10.46,25,25,0,0,0-3.5-8.33,16.39,16.39,0,0,0-14.2-7.42Z"/><path class="cls-1" d="M2037.56,134a28,28,0,0,1-4.11,3.87,30.94,30.94,0,0,1-5.54,3.42,34.59,34.59,0,0,1-6.83,2.43,32.74,32.74,0,0,1-7.83.91,23.35,23.35,0,0,1-8.35-1.44,19.28,19.28,0,0,1-6.53-4,18.34,18.34,0,0,1-4.33-6.38,21.21,21.21,0,0,1-1.6-8.35q0-10,7.07-15.19t18.91-5.93q4.86-.3,9.64-.45t9.19-.15V99.48q0-9.27-4-14.51t-13.06-5.24a36.61,36.61,0,0,0-10.1,1.37,43.78,43.78,0,0,0-9.19,3.8l-3.19-10A39.69,39.69,0,0,1,2009.53,70a59.23,59.23,0,0,1,13.14-1.37q12.91,0,20.58,7.9t7.67,22.63v43.9h-13.36Zm-20.36.61a23.9,23.9,0,0,0,11.09-2.66,32.19,32.19,0,0,0,9-6.76V111.63q-4.56.3-8.5.61t-7.9.76a35.35,35.35,0,0,0-6,1.06,17.74,17.74,0,0,0-4.86,2,9.11,9.11,0,0,0-3.19,3.34,10,10,0,0,0-1.14,4.94q0,5.16,3,7.67C2010.72,133.73,2013.56,134.57,2017.2,134.57Z"/><path class="cls-1" d="M2068.85,143.07V70.16h13.06V80.79a29.71,29.71,0,0,1,9.87-9,27.26,27.26,0,0,1,13.37-3.19,22.52,22.52,0,0,1,11.69,2.89,24.14,24.14,0,0,1,8,7.82,34.89,34.89,0,0,1,4.64,11.47,64,64,0,0,1,1.44,13.82v38.43H2117.3v-38a53.13,53.13,0,0,0-.91-10.26,25.15,25.15,0,0,0-2.89-8,14.05,14.05,0,0,0-12.91-7.14,18.4,18.4,0,0,0-10.71,3.19,33.19,33.19,0,0,0-7.36,6.68v53.47Z"/><path class="cls-1" d="M2209,143.07h-12.91v-10a37.2,37.2,0,0,1-9.87,8.2,27.55,27.55,0,0,1-14,3.34,24.19,24.19,0,0,1-11.54-2.74,27.16,27.16,0,0,1-9-7.76,37.1,37.1,0,0,1-5.85-11.87,52.3,52.3,0,0,1-2-15.07,44.73,44.73,0,0,1,2.81-16.36,34.3,34.3,0,0,1,7.82-12.18,33.64,33.64,0,0,1,11.77-7.53,40.56,40.56,0,0,1,14.66-2.59,50.42,50.42,0,0,1,7.82.54,55.3,55.3,0,0,1,6.61,1.46V35.83H2209Zm-33-9.57a20.34,20.34,0,0,0,11.39-3.18,35.74,35.74,0,0,0,7.9-6.81v-42a24.37,24.37,0,0,0-5.92-1.52,52.42,52.42,0,0,0-7-.45q-11.4,0-18.15,7.12t-6.76,20.45q0,12,4.48,19.16T2176.08,133.5Z"/><path class="cls-1" d="M2226.2,48.59a8.71,8.71,0,0,1,2.36-6.07,9,9,0,0,1,12.61,0,9,9,0,0,1,0,12.15,9,9,0,0,1-12.61,0A8.73,8.73,0,0,1,2226.2,48.59Zm1.83,94.48V70.16h13.67v72.91Z"/><path class="cls-1" d="M2260.68,143.07V70.16h13.07V80.79a29.71,29.71,0,0,1,9.87-9A27.26,27.26,0,0,1,2297,68.64a22.54,22.54,0,0,1,11.69,2.89,24.14,24.14,0,0,1,8.05,7.82,34.89,34.89,0,0,1,4.64,11.47,64,64,0,0,1,1.44,13.82v38.43h-13.67v-38a53.93,53.93,0,0,0-.91-10.26,25.15,25.15,0,0,0-2.89-8,14.05,14.05,0,0,0-12.91-7.14,18.4,18.4,0,0,0-10.71,3.19,33.48,33.48,0,0,0-7.37,6.68v53.47Z"/><path class="cls-1" d="M2366.55,118.62a35.41,35.41,0,0,1-5.77-.46,10.11,10.11,0,0,0-2.28,6.08,4.51,4.51,0,0,0,1.9,4q1.89,1.29,6.3,1.6l15,1.21a59.66,59.66,0,0,1,9.57,1.6,24,24,0,0,1,7.52,3.26,14.82,14.82,0,0,1,4.86,5.55,17.69,17.69,0,0,1,1.75,8.12,18.33,18.33,0,0,1-3.42,10.79,29.57,29.57,0,0,1-9.11,8.28,49.54,49.54,0,0,1-13.07,5.31,60.71,60.71,0,0,1-15.26,1.9,64.32,64.32,0,0,1-12.46-1.14,35.4,35.4,0,0,1-10.1-3.49,19.69,19.69,0,0,1-6.84-5.93,14.3,14.3,0,0,1-2.5-8.43,13.18,13.18,0,0,1,1.9-7.14,19,19,0,0,1,4.86-5.24,31.51,31.51,0,0,1,6.6-3.72,55.28,55.28,0,0,1,7.14-2.43,14.87,14.87,0,0,1-5.08-4.1,10.16,10.16,0,0,1-2.06-6.53,9.76,9.76,0,0,1,2.44-7,21,21,0,0,1,5.62-4.25,26.24,26.24,0,0,1-12-8.58,23.63,23.63,0,0,1-2.28-24.08,26.16,26.16,0,0,1,6.15-8,27.88,27.88,0,0,1,9.19-5.32,33.74,33.74,0,0,1,11.39-1.9,35.4,35.4,0,0,1,5.24.38,35,35,0,0,1,4.94,1.14h27.19V80.34h-12.76a25.67,25.67,0,0,1,3.26,6.38,22,22,0,0,1,1.14,7.14,22.71,22.71,0,0,1-2.2,10,23,23,0,0,1-6.15,7.82,29.16,29.16,0,0,1-9.27,5.09A34.74,34.74,0,0,1,2366.55,118.62Zm-5.32,21.87q-2.58,1.22-5.31,2.66a31.52,31.52,0,0,0-4.94,3.19,16.54,16.54,0,0,0-3.64,3.95,9,9,0,0,0-1.45,5.08,8.7,8.7,0,0,0,5.17,8.36q5.16,2.58,14.12,2.58a51.63,51.63,0,0,0,9.57-.91,34.34,34.34,0,0,0,8.74-2.81,20.06,20.06,0,0,0,6.38-4.78,9.91,9.91,0,0,0,2.5-6.69,6.73,6.73,0,0,0-1.36-4.4,10.21,10.21,0,0,0-3.65-2.74,19.48,19.48,0,0,0-5.16-1.52c-1.93-.3-3.95-.55-6.08-.76Zm5.32-31.6a18.2,18.2,0,0,0,12-4q4.86-4,4.86-11.16t-4.78-11.17a18.14,18.14,0,0,0-12.08-4,18.57,18.57,0,0,0-12.07,3.87q-4.79,3.87-4.79,11.32t4.86,11.31A18.66,18.66,0,0,0,2366.55,108.89Z"/><path class="cls-1" d="M1821,211.09a83.64,83.64,0,0,1,14.27,1.3,57.85,57.85,0,0,1,12.46,3.41l-2.28,10.79a76.31,76.31,0,0,0-11.09-3,61.8,61.8,0,0,0-11.69-1.14q-19,0-29.62,10.63t-10.64,30.38q0,19.74,10.64,30.38t29.62,10.63a61.8,61.8,0,0,0,11.69-1.14,77.61,77.61,0,0,0,11.09-3l2.28,10.78a57.24,57.24,0,0,1-12.46,3.42A83.6,83.6,0,0,1,1821,315.9,59,59,0,0,1,1798.7,312,46.47,46.47,0,0,1,1782.22,301,47.78,47.78,0,0,1,1772,284.46a63.31,63.31,0,0,1,0-41.92A47.78,47.78,0,0,1,1782.22,226,46.63,46.63,0,0,1,1798.7,215,59.17,59.17,0,0,1,1821,211.09Z"/><path class="cls-1" d="M1924.55,277.62a44.5,44.5,0,0,1-2.36,14.59,36.11,36.11,0,0,1-6.91,12.07,32.57,32.57,0,0,1-11.16,8.28,38.53,38.53,0,0,1-30,0,32.69,32.69,0,0,1-11.09-8.28,36.11,36.11,0,0,1-6.91-12.07,46.25,46.25,0,0,1,0-29.17A36.11,36.11,0,0,1,1863,251a32.82,32.82,0,0,1,11.09-8.28,38.53,38.53,0,0,1,30,0,32.7,32.7,0,0,1,11.16,8.28,36.11,36.11,0,0,1,6.91,12.07A44.48,44.48,0,0,1,1924.55,277.62Zm-13.67,0a40.32,40.32,0,0,0-1.37-10.63,27.19,27.19,0,0,0-4-8.73,18.87,18.87,0,0,0-6.75-5.85,22.56,22.56,0,0,0-19.14,0,18.82,18.82,0,0,0-6.76,5.85,27,27,0,0,0-4,8.73,42.24,42.24,0,0,0,0,21.34,27.09,27.09,0,0,0,4,8.66,18.82,18.82,0,0,0,6.76,5.85,22.56,22.56,0,0,0,19.14,0,18.87,18.87,0,0,0,6.75-5.85,27.31,27.31,0,0,0,4-8.66A40.06,40.06,0,0,0,1910.88,277.62Z"/><path class="cls-1" d="M2017.51,250.74a18.7,18.7,0,0,0-10.71,3.34,38.33,38.33,0,0,0-8.74,8.2,62.44,62.44,0,0,1,1.37,13.37v38.43h-13.67v-38a63.28,63.28,0,0,0-.76-10.26,25.32,25.32,0,0,0-2.58-8,13.14,13.14,0,0,0-12.46-7.14,18.4,18.4,0,0,0-10.71,3.19,32.94,32.94,0,0,0-7.36,6.68v53.47h-13.67V241.17h13.06V251.8a29.71,29.71,0,0,1,9.87-9,27.15,27.15,0,0,1,13.37-3.19q7.74,0,12.84,3.8a25.2,25.2,0,0,1,8,10.48,33.66,33.66,0,0,1,10.86-10.56,29.53,29.53,0,0,1,15.27-3.72,22.45,22.45,0,0,1,11.69,2.89,22.91,22.91,0,0,1,7.9,7.82,36.92,36.92,0,0,1,4.48,11.47,64,64,0,0,1,1.44,13.82v38.43H2033.3v-38a63.28,63.28,0,0,0-.76-10.26,24.82,24.82,0,0,0-2.58-8,13.81,13.81,0,0,0-4.86-5.24A14.06,14.06,0,0,0,2017.51,250.74Z"/><path class="cls-1" d="M2065.2,241.17h13.06V251a31.58,31.58,0,0,1,9-8q5.47-3.33,14.13-3.34a25.59,25.59,0,0,1,11.85,2.73,26.76,26.76,0,0,1,9.11,7.75,38.29,38.29,0,0,1,5.93,11.85,50.71,50.71,0,0,1,2.12,15,44.81,44.81,0,0,1-2.81,16.33,34.17,34.17,0,0,1-7.82,12.15A33.75,33.75,0,0,1,2108,313a40.82,40.82,0,0,1-14.66,2.58,50.51,50.51,0,0,1-7.82-.54,55.3,55.3,0,0,1-6.61-1.46v31.77H2065.2Zm32.66,9.57a20.25,20.25,0,0,0-11.4,3.11,32.34,32.34,0,0,0-7.59,6.73v42a24.37,24.37,0,0,0,5.92,1.52,52.42,52.42,0,0,0,7,.45q11.4,0,18.15-7.12t6.76-20.45a45.6,45.6,0,0,0-1.14-10.45,24.91,24.91,0,0,0-3.49-8.33,16.39,16.39,0,0,0-14.2-7.42Z"/><path class="cls-1" d="M2204,241.17v72.91H2191V303.45a32.61,32.61,0,0,1-9.8,8.73,26.13,26.13,0,0,1-13.44,3.42,22.13,22.13,0,0,1-11.62-2.89,23,23,0,0,1-7.82-7.82,35.44,35.44,0,0,1-4.41-11.47,67.4,67.4,0,0,1-1.37-13.82V241.17h13.67v38a64.43,64.43,0,0,0,.76,10.26,25,25,0,0,0,2.59,8,13.6,13.6,0,0,0,4.93,5.24,14.77,14.77,0,0,0,7.83,1.9,18.07,18.07,0,0,0,10.63-3.19,37.22,37.22,0,0,0,7.44-6.68V241.17Z"/><path class="cls-1" d="M2214.66,241.17h13.07V222.49h13.67v18.68h24v11.09h-24v37.21a37.9,37.9,0,0,0,.45,6,13.15,13.15,0,0,0,1.67,4.79,8.67,8.67,0,0,0,3.35,3.11,11.85,11.85,0,0,0,5.62,1.14,32.22,32.22,0,0,0,11.54-2l1.21,10.32a32.59,32.59,0,0,1-6.91,1.9,47.3,47.3,0,0,1-8.73.84,23.9,23.9,0,0,1-10-1.9,18,18,0,0,1-6.76-5.32,22,22,0,0,1-3.87-8.12,41.3,41.3,0,0,1-1.21-10.33V252.26h-13.07Z"/><path class="cls-1" d="M2276.48,219.6a8.75,8.75,0,0,1,2.36-6.08,9,9,0,0,1,12.61,0,9,9,0,0,1,0,12.16,9,9,0,0,1-12.61,0A8.73,8.73,0,0,1,2276.48,219.6Zm1.83,94.48V241.17H2292v72.91Z"/><path class="cls-1" d="M2311,314.08V241.17H2324V251.8a29.71,29.71,0,0,1,9.87-9,27.15,27.15,0,0,1,13.37-3.19,22.45,22.45,0,0,1,11.69,2.89,24.14,24.14,0,0,1,8.05,7.82,34.57,34.57,0,0,1,4.63,11.47,63.39,63.39,0,0,1,1.45,13.82v38.43h-13.67v-38a53.93,53.93,0,0,0-.91-10.26,25.15,25.15,0,0,0-2.89-8,14.05,14.05,0,0,0-12.91-7.14,18.4,18.4,0,0,0-10.71,3.19,33.23,33.23,0,0,0-7.37,6.68v53.47Z"/><path class="cls-1" d="M2416.83,289.62a35.44,35.44,0,0,1-5.77-.45,10.1,10.1,0,0,0-2.28,6.07,4.52,4.52,0,0,0,1.9,4q1.89,1.29,6.3,1.59l15,1.22a58.6,58.6,0,0,1,9.57,1.59,23.76,23.76,0,0,1,7.52,3.27,14.87,14.87,0,0,1,4.86,5.54,17.73,17.73,0,0,1,1.75,8.13,18.35,18.35,0,0,1-3.42,10.79,29.34,29.34,0,0,1-9.12,8.27,49,49,0,0,1-13.06,5.32,60.71,60.71,0,0,1-15.26,1.9,64.32,64.32,0,0,1-12.46-1.14,35.4,35.4,0,0,1-10.1-3.49,19.79,19.79,0,0,1-6.84-5.93,14.3,14.3,0,0,1-2.5-8.43,13.18,13.18,0,0,1,1.9-7.14,19,19,0,0,1,4.86-5.24,31.07,31.07,0,0,1,6.6-3.72,54.77,54.77,0,0,1,7.14-2.43,14.87,14.87,0,0,1-5.08-4.1,10.16,10.16,0,0,1-2.06-6.53,9.78,9.78,0,0,1,2.43-7,21.15,21.15,0,0,1,5.62-4.25,26.34,26.34,0,0,1-12-8.58,23.63,23.63,0,0,1-2.28-24.08,26,26,0,0,1,6.15-8,27.88,27.88,0,0,1,9.19-5.32,33.49,33.49,0,0,1,11.39-1.9,35.4,35.4,0,0,1,5.24.38,32.43,32.43,0,0,1,4.94,1.14h27.19v10.18h-12.76a25.5,25.5,0,0,1,3.26,6.38,21.9,21.9,0,0,1,1.14,7.14,22.71,22.71,0,0,1-2.2,10,23,23,0,0,1-6.15,7.82,29.16,29.16,0,0,1-9.27,5.09A34.73,34.73,0,0,1,2416.83,289.62Zm-5.32,21.88c-1.72.81-3.49,1.69-5.31,2.66a31.74,31.74,0,0,0-4.94,3.18,16.93,16.93,0,0,0-3.64,4,9,9,0,0,0-1.45,5.09,8.71,8.71,0,0,0,5.17,8.36q5.16,2.58,14.12,2.58a51.63,51.63,0,0,0,9.57-.91,34.34,34.34,0,0,0,8.74-2.81,19.93,19.93,0,0,0,6.38-4.79,9.87,9.87,0,0,0,2.5-6.68,6.77,6.77,0,0,0-1.36-4.41,10.3,10.3,0,0,0-3.65-2.73,19.48,19.48,0,0,0-5.16-1.52c-1.93-.3-3.95-.55-6.08-.76Zm5.32-31.6a18.2,18.2,0,0,0,12-4q4.86-4,4.86-11.17t-4.78-11.16a18.15,18.15,0,0,0-12.08-4,18.5,18.5,0,0,0-12.07,3.88q-4.78,3.87-4.79,11.31t4.86,11.32A18.66,18.66,0,0,0,2416.83,279.9Z"/><path class="cls-1" d="M1774,383.92h56.35v11.4H1788v32.35h40.56v11.39H1788V473.7h42.84v11.39H1774Z"/><path class="cls-1" d="M1906.32,485.09h-12.91v-10a37.24,37.24,0,0,1-9.87,8.21,27.55,27.55,0,0,1-14,3.34,24.31,24.31,0,0,1-11.54-2.74,27.19,27.19,0,0,1-9-7.77,36.9,36.9,0,0,1-5.85-11.87,52.23,52.23,0,0,1-2-15.06A44.82,44.82,0,0,1,1844,432.8a34.34,34.34,0,0,1,7.82-12.17,33.8,33.8,0,0,1,11.77-7.54,40.78,40.78,0,0,1,14.66-2.58,50.51,50.51,0,0,1,7.82.54,53.41,53.41,0,0,1,6.61,1.46V377.85h13.67Zm-33-9.57a20.34,20.34,0,0,0,11.39-3.18,35.51,35.51,0,0,0,7.9-6.82v-42a24.38,24.38,0,0,0-5.92-1.51,52.42,52.42,0,0,0-7-.45q-11.4,0-18.15,7.12t-6.76,20.44q0,12,4.48,19.16T1873.36,475.52Z"/><path class="cls-1" d="M1985.31,412.18v72.91h-13.07V474.45a32.47,32.47,0,0,1-9.79,8.74,26.14,26.14,0,0,1-13.45,3.42,22.16,22.16,0,0,1-11.62-2.89,23,23,0,0,1-7.82-7.82,35.52,35.52,0,0,1-4.4-11.47,66.71,66.71,0,0,1-1.37-13.82V412.18h13.67v38a63.06,63.06,0,0,0,.76,10.25,25,25,0,0,0,2.58,8,13.7,13.7,0,0,0,4.94,5.24,14.73,14.73,0,0,0,7.82,1.9,18.12,18.12,0,0,0,10.63-3.19,37.29,37.29,0,0,0,7.45-6.69V412.18Z"/><path class="cls-1" d="M2034.82,410.51a58.08,58.08,0,0,1,11.4,1.07,38.41,38.41,0,0,1,9.11,2.93l-2,10.58a43.79,43.79,0,0,0-8.43-2.58,44.25,44.25,0,0,0-8.88-.91q-12.3,0-18.15,7.49T2012,448.56q0,12,5.85,19.46t18.15,7.5a45,45,0,0,0,8.88-.91,43.8,43.8,0,0,0,8.43-2.59l2,10.58a37.69,37.69,0,0,1-9.57,2.93,59.63,59.63,0,0,1-10.94,1.08,38.93,38.93,0,0,1-16-3.05,32.23,32.23,0,0,1-11.39-8.29,35,35,0,0,1-6.83-12.18,47.47,47.47,0,0,1,0-29.07,35.08,35.08,0,0,1,6.83-12.17,32.25,32.25,0,0,1,11.39-8.3A38.93,38.93,0,0,1,2034.82,410.51Z"/><path class="cls-1" d="M2109.25,476a27.47,27.47,0,0,1-4.1,3.88,32.12,32.12,0,0,1-5.54,3.42,33.83,33.83,0,0,1-6.84,2.42,32.65,32.65,0,0,1-7.82.92,23.44,23.44,0,0,1-8.36-1.45,19.51,19.51,0,0,1-6.53-4,18.46,18.46,0,0,1-4.32-6.38,21.26,21.26,0,0,1-1.6-8.36q0-10,7.06-15.18t18.91-5.93q4.86-.3,9.65-.45c3.19-.1,6.25-.16,9.19-.16v-3.19q0-9.25-3.95-14.5t-13.06-5.24a36.61,36.61,0,0,0-10.1,1.36,44.32,44.32,0,0,0-9.19,3.8l-3.19-10a39.59,39.59,0,0,1,11.77-4.86,58.64,58.64,0,0,1,13.14-1.37q12.9,0,20.58,7.9t7.67,22.63v43.9h-13.37Zm-20.35.61a23.81,23.81,0,0,0,11.09-2.66,32,32,0,0,0,9-6.76V453.65q-4.56.3-8.51.6t-7.9.76a36.73,36.73,0,0,0-6,1.07,17.69,17.69,0,0,0-4.86,2.05,9.19,9.19,0,0,0-3.19,3.34,10,10,0,0,0-1.14,4.93c0,3.45,1,6,3,7.68S2085.25,476.58,2088.9,476.58Z"/><path class="cls-1" d="M2132.19,412.18h13.06V393.49h13.67v18.69h24v11.09h-24v37.21a36.72,36.72,0,0,0,.46,6,12.85,12.85,0,0,0,1.67,4.78,8.59,8.59,0,0,0,3.34,3.12,11.91,11.91,0,0,0,5.62,1.14,32,32,0,0,0,11.54-2l1.22,10.33a33.38,33.38,0,0,1-6.91,1.9,47.41,47.41,0,0,1-8.74.84,23.82,23.82,0,0,1-10-1.9,18,18,0,0,1-6.76-5.32,22,22,0,0,1-3.88-8.13,41.21,41.21,0,0,1-1.21-10.32V423.27h-13.06Z"/><path class="cls-1" d="M2194,390.61a8.74,8.74,0,0,1,2.35-6.08,9,9,0,0,1,12.61,0,9,9,0,0,1,0,12.15,9,9,0,0,1-12.61,0A8.7,8.7,0,0,1,2194,390.61Zm1.82,94.48V412.18h13.67v72.91Z"/><path class="cls-1" d="M2294,448.63a44.39,44.39,0,0,1-2.35,14.58,36.06,36.06,0,0,1-6.91,12.08,32.77,32.77,0,0,1-11.17,8.28,38.53,38.53,0,0,1-30,0,32.91,32.91,0,0,1-11.08-8.28,36.08,36.08,0,0,1-6.92-12.08,46.4,46.4,0,0,1,0-29.16,36,36,0,0,1,6.92-12.07,32.65,32.65,0,0,1,11.08-8.28,38.53,38.53,0,0,1,30,0,32.52,32.52,0,0,1,11.17,8.28,36,36,0,0,1,6.91,12.07A44.48,44.48,0,0,1,2294,448.63Zm-13.67,0a40.32,40.32,0,0,0-1.36-10.63,27.4,27.4,0,0,0-4-8.73,18.82,18.82,0,0,0-6.76-5.85,22.56,22.56,0,0,0-19.14,0,18.9,18.9,0,0,0-6.76,5.85,27.17,27.17,0,0,0-4,8.73,42.24,42.24,0,0,0,0,21.34,27.29,27.29,0,0,0,4,8.66,18.9,18.9,0,0,0,6.76,5.85,22.66,22.66,0,0,0,19.14,0,18.82,18.82,0,0,0,6.76-5.85,27.52,27.52,0,0,0,4-8.66A40.06,40.06,0,0,0,2280.28,448.63Z"/><path class="cls-1" d="M2307.62,485.09V412.18h13.06v10.63a29.73,29.73,0,0,1,9.88-9,27.11,27.11,0,0,1,13.36-3.19,22.55,22.55,0,0,1,11.7,2.88,24.36,24.36,0,0,1,8.05,7.83,34.57,34.57,0,0,1,4.63,11.47,63.39,63.39,0,0,1,1.45,13.82v38.43h-13.67v-38a53.06,53.06,0,0,0-.92-10.25,25.05,25.05,0,0,0-2.88-8,14.59,14.59,0,0,0-5.17-5.24,14.8,14.8,0,0,0-7.74-1.9,18.4,18.4,0,0,0-10.71,3.19,32.77,32.77,0,0,0-7.37,6.68v53.47Z"/><path class="cls-1" d="M1837.21,584.55a27,27,0,0,1-3.19,13.14,29.68,29.68,0,0,1-8.89,9.95,42.69,42.69,0,0,1-13.44,6.3,60.77,60.77,0,0,1-16.71,2.21h-7v40h-14V554.93h24.45a60.76,60.76,0,0,1,15.27,1.83,36.84,36.84,0,0,1,12.3,5.54,26.62,26.62,0,0,1,8.21,9.27A27.18,27.18,0,0,1,1837.21,584.55Zm-14-.15a16.69,16.69,0,0,0-2-8.43,16.36,16.36,0,0,0-5.39-5.62,24,24,0,0,0-8-3.19,46.85,46.85,0,0,0-9.8-1h-10v38.74h7.45a43,43,0,0,0,11.16-1.37,27.13,27.13,0,0,0,8.81-4,19,19,0,0,0,5.77-6.46A17.9,17.9,0,0,0,1823.23,584.4Z"/><path class="cls-1" d="M1887.64,647a27.51,27.51,0,0,1-4.11,3.87,30.59,30.59,0,0,1-5.54,3.42,33.15,33.15,0,0,1-6.83,2.43,32.74,32.74,0,0,1-7.83.91,23.39,23.39,0,0,1-8.35-1.44,19.41,19.41,0,0,1-6.53-4,18.48,18.48,0,0,1-4.33-6.38,21.44,21.44,0,0,1-1.6-8.36q0-10,7.07-15.19t18.91-5.92q4.86-.3,9.64-.46t9.19-.15V612.5q0-9.25-3.95-14.5t-13.06-5.24a36.66,36.66,0,0,0-10.1,1.36,44,44,0,0,0-9.19,3.8l-3.19-10a40.23,40.23,0,0,1,11.77-4.86,59.25,59.25,0,0,1,13.14-1.36q12.91,0,20.58,7.9T1901,612.2v43.9h-13.36Zm-20.36.61a23.9,23.9,0,0,0,11.09-2.66,32,32,0,0,0,9-6.76V624.65c-3,.21-5.87.41-8.5.61s-5.27.46-7.9.76a36.37,36.37,0,0,0-6,1.06,18,18,0,0,0-4.86,2,9.22,9.22,0,0,0-3.19,3.35,10,10,0,0,0-1.14,4.93c0,3.45,1,6,3,7.67S1863.64,647.59,1867.28,647.59Z"/><path class="cls-1" d="M1910.57,583.19h13.06V564.5h13.68v18.69h24v11.08h-24v37.22a37.9,37.9,0,0,0,.45,6,12.92,12.92,0,0,0,1.67,4.78,8.59,8.59,0,0,0,3.34,3.12,11.91,11.91,0,0,0,5.62,1.14,32.06,32.06,0,0,0,11.55-2l1.21,10.33a33.2,33.2,0,0,1-6.91,1.9,48.23,48.23,0,0,1-8.73.83,23.91,23.91,0,0,1-10-1.89,18,18,0,0,1-6.76-5.32,22.07,22.07,0,0,1-3.87-8.13,41.22,41.22,0,0,1-1.22-10.33V594.27h-13.06Z"/><path class="cls-1" d="M1974.22,656.1V548.86h13.67v43.59a30.55,30.55,0,0,1,9.87-8.05,28.21,28.21,0,0,1,12.76-2.73,22.52,22.52,0,0,1,11.69,2.88,24.27,24.27,0,0,1,8,7.83,34.83,34.83,0,0,1,4.64,11.46,64.18,64.18,0,0,1,1.44,13.83V656.1h-13.67v-38a53.1,53.1,0,0,0-.91-10.25,25.12,25.12,0,0,0-2.89-8,14.81,14.81,0,0,0-5.16-5.24,15,15,0,0,0-7.75-1.89,18.4,18.4,0,0,0-10.71,3.19,32.71,32.71,0,0,0-7.36,6.68V656.1Z"/><path class="cls-1" d="M2126.41,640l15.34-56.8h12.91L2133.1,656.1h-12.76l-19.9-61.22-19.9,61.22h-12.76l-21.57-72.91h12.91l15.34,56.8,18.54-56.8h14.88Z"/><path class="cls-1" d="M2205.09,647a26.94,26.94,0,0,1-4.1,3.87,30.94,30.94,0,0,1-5.54,3.42,33.24,33.24,0,0,1-6.84,2.43,32.6,32.6,0,0,1-7.82.91,23.35,23.35,0,0,1-8.35-1.44,19.46,19.46,0,0,1-6.54-4,18.46,18.46,0,0,1-4.32-6.38,21.26,21.26,0,0,1-1.6-8.36q0-10,7.06-15.19T2186,616.3c3.23-.2,6.45-.35,9.64-.46s6.25-.15,9.19-.15V612.5q0-9.25-3.95-14.5t-13.06-5.24a36.61,36.61,0,0,0-10.1,1.36,43.78,43.78,0,0,0-9.19,3.8l-3.19-10a40.12,40.12,0,0,1,11.77-4.86,59.25,59.25,0,0,1,13.14-1.36q12.9,0,20.58,7.9t7.67,22.63v43.9h-13.37Zm-20.35.61a23.9,23.9,0,0,0,11.09-2.66,32,32,0,0,0,9-6.76V624.65c-3,.21-5.87.41-8.51.61s-5.26.46-7.89.76a36.37,36.37,0,0,0-6,1.06,18.26,18.26,0,0,0-4.87,2,9.19,9.19,0,0,0-3.18,3.35,10,10,0,0,0-1.14,4.93c0,3.45,1,6,3,7.67S2181.09,647.59,2184.74,647.59Z"/><path class="cls-1" d="M2242.76,687.39l10.79-30.53-26.74-73.67h14.13l19.14,59.69,18.83-59.69H2293l-36.91,104.2Z"/><path class="cls-1" d="M2349.24,635.29a19.34,19.34,0,0,1-2.2,9.26,21.05,21.05,0,0,1-6.08,7,29.27,29.27,0,0,1-9.19,4.48,40.09,40.09,0,0,1-11.54,1.59c-1.82,0-3.75-.1-5.77-.3s-4.06-.51-6.08-.91-4-.89-5.85-1.44a35.91,35.91,0,0,1-4.78-1.75l2.28-10.78a70,70,0,0,0,9,3,43.73,43.73,0,0,0,11.32,1.37,23.46,23.46,0,0,0,11-2.35,8.49,8.49,0,0,0,3.27-11.85,12.45,12.45,0,0,0-3.19-3.34,26.21,26.21,0,0,0-4.63-2.66q-2.67-1.21-5.55-2.43-3.95-1.51-7.9-3.42a36,36,0,0,1-7.21-4.56,22.7,22.7,0,0,1-5.32-6.15,16.18,16.18,0,0,1-2.05-8.35,17.88,17.88,0,0,1,2.2-9.12,18.82,18.82,0,0,1,5.78-6.22,24.89,24.89,0,0,1,8.27-3.57,41.19,41.19,0,0,1,9.73-1.14A48.87,48.87,0,0,1,2336,583a42.88,42.88,0,0,1,9.87,3.57l-2.28,10.33a45.08,45.08,0,0,0-9.19-3.27,41.5,41.5,0,0,0-9.64-1.14,20,20,0,0,0-9,1.82q-3.65,1.83-3.64,6.69a6,6,0,0,0,1.29,3.87,13.47,13.47,0,0,0,3.34,2.89,34.3,34.3,0,0,0,4.48,2.35q2.43,1.06,4.56,2.13c1.31.61,3.29,1.47,5.92,2.58a45,45,0,0,1,7.82,4.33,27.53,27.53,0,0,1,6.76,6.61A15.73,15.73,0,0,1,2349.24,635.29Z"/><rect class="cls-1" x="1572.97" y="37.57" width="10" height="655.03"/></svg>